<?xml version="1.0" standalone="no"?><!DOCTYPE svg PUBLIC "-//W3C//DTD SVG 1.1//EN" "http://www.w3.org/Graphics/SVG/1.1/DTD/svg11.dtd"><svg t="1525328614698" class="icon" style="" viewBox="0 0 1024 1024" version="1.1" xmlns="http://www.w3.org/2000/svg" p-id="2252" xmlns:xlink="http://www.w3.org/1999/xlink" width="200" height="200"><defs><style type="text/css"></style></defs><path d="M453.73 742.93a289.2 289.2 0 1 1 204.48-493.68 289.2 289.2 0 0 1-204.48 493.68z m0-508.32A219.11 219.11 0 0 0 298.8 608.66c82.8 82.8 227.06 82.8 309.87 0a219.07 219.07 0 0 0 0-309.87 217.67 217.67 0 0 0-154.94-64.18z" fill="#ffffff" p-id="2253"></path><path d="M824.43 859.47a34.92 34.92 0 0 1-24.77-10.26L631.18 680.72a35 35 0 0 1 49.55-49.55l168.48 168.49a35 35 0 0 1-24.77 59.81z" fill="#ffffff" p-id="2254"></path></svg>